# xmcd
#
# Track frame offsets: 
#        150
#        11781
#        29936
#        45718
#        71898
#        92077
#        110684
#        129534
#        147543
#        158572
#        184077
#
# Disc length: 2632 seconds
#
# Revision: 0
# Processed by: cddbd v1.5.2PL0 Copyright (c) Steve Scherf et al.
# Submitted via: ExactAudioCopy v1.0b1
#
DISCID=a50a460b
DTITLE=Solomon Burke - Music To Make Love By
DYEAR=1998
DGENRE=Blues
TTITLE0=Music To Make Love By (Part 1)
TTITLE1=Let Me Wrap My Arms Around You
TTITLE2=Come Rain Or Come Shine
TTITLE3=You And Your Baby Blues
TTITLE4=All The Way
TTITLE5=Thanks, I Needed That
TTITLE6=Everlasting Love
TTITLE7=Midnight And You
TTITLE8=Music To Make Love By (Part 2)
TTITLE9=Baby Blues (Alt. Version)
TTITLE10=I'm Leaving On That Late, Late Train
EXTD=
EXTT0=
EXTT1=
EXTT2=
EXTT3=
EXTT4=
EXTT5=
EXTT6=
EXTT7=
EXTT8=
EXTT9=
EXTT10=
PLAYORDER=
